<?xml version="1.0" encoding="utf-8"?>
<!-- Generator: Adobe Illustrator 22.0.1, SVG Export Plug-In . SVG Version: 6.00 Build 0)  -->
<svg version="1.1" id="Calque_1" xmlns="http://www.w3.org/2000/svg" xmlns:xlink="http://www.w3.org/1999/xlink" x="0px" y="0px"
	 viewBox="0 0 40 40" style="enable-background:new 0 0 40 40;" xml:space="preserve">
<style type="text/css">
	.st0{fill:#A3195B;}
</style>
<g>
	<g>
		<path class="st0" d="M26.1,1.1v6.5c0,0.3-0.2,0.5-0.4,0.6l-11.5,5.9c-0.2,0.1-0.4,0.3-0.4,1v11.4l-5.3-2.5
			c-0.2-0.1-0.4-0.4-0.4-0.6c0-4.1,0-8.1,0-12.2c0-0.3,0.2-0.8,0.7-0.9L26.1,1.1z"/>
	</g>
	<g>
		<path class="st0" d="M32.6,16c-1.5-0.8-2.9-1.6-4.4-2.4c-0.8-0.4-1.6-1-2.7-0.3c-1.9,1.2-3.9,2.1-5.9,3.2C19.3,16.7,19,17,19,17.3
			c0,2,0,4,0,6.1c2.8-1.4,5.6-2.8,8.4-4.3c0,1.9,0,3.7,0,5.5c0,0.2-0.3,0.6-0.5,0.7c-2.1,1.3-4.2,2.5-6.3,3.8
			c0.1,0.2,0.2,0.5,0.1,0.7c0,0.1,0,0.2,0,0.3c0,0.1,0,0.3,0,0.4c0,0.1,0,0.1,0,0.2c0.3,0,0.6,0,0.9,0c0.2,0,0.2-0.1,0.3-0.1
			c0.1-0.1,0.1-0.2,0.1-0.2c0-0.2,0-0.4,0-0.7c0.1-0.6,0.6-1.2,1.3-1.2c0.1,0,0.2,0,0.3,0c0.2,0,0.5,0,0.7,0c0.3,0,0.7,0.1,0.9,0.4
			c0.3,0.2,0.4,0.6,0.4,0.9c0,0.4,0,0.7,0,1.2c0,0.3-0.2,0.7-0.4,0.9c-0.2,0.2-0.6,0.4-0.9,0.3c-0.2,0-0.3,0-0.5,0
			c-0.2,0-0.3,0.1-0.3,0.1c0,0,0,0,0,0.1c0,0,0,0,0,0.2c0,0.2,0,0.4,0,0.6c0,0.2,0,0.3,0,0.5l8.3-4.5c0.5-0.3,1.3-0.8,1.3-1.5v-11
			C33,16.4,32.8,16.1,32.6,16z"/>
	</g>
	<path class="st0" d="M15.9,34.4c-0.2,0-0.5,0-0.7,0c-0.3,0-0.5-0.1-0.6-0.3c0-0.1-0.1-0.2-0.1-0.3c0-0.5,0-1,0-1.6
		c0-0.2,0.1-0.4,0.3-0.6c0.1,0,0.2-0.1,0.3-0.1c0.4,0,0.9,0,1.3,0c0.2,0,0.4,0,0.6-0.2c0.1,0,0.1-0.1,0.1-0.2c0-0.2,0.1-0.4,0.1-0.6
		c0-0.3,0-0.7,0-1c0-0.3,0.3-0.5,0.5-0.5c0.5,0,0.9,0,1.4,0c0.3,0,0.5,0.3,0.5,0.5c0,0.2,0,0.5,0,0.7c0,0.2,0,0.5,0.1,0.7
		c0,0.1,0.1,0.3,0.3,0.3c0.2,0,0.3,0.1,0.5,0.1c0.3,0,0.7,0,1,0c0.5,0,0.8-0.2,1.1-0.6c0.1-0.2,0.2-0.4,0.2-0.6c0-0.2,0-0.4,0-0.6
		c0-0.2,0.2-0.3,0.4-0.3c0.4,0,0.7,0,1.1,0c0.2,0,0.4,0.2,0.4,0.4c0,0.4,0,0.7,0,1.1c0,0.1-0.2,0.4-0.3,0.4c-0.2,0-0.4,0-0.6,0
		c-0.3,0-0.6,0.1-0.8,0.3c-0.2,0.1-0.3,0.3-0.4,0.6c0,0.1,0,0.3,0,0.4c0,0.4,0,0.8,0,1.1c0,0.2,0,0.3-0.1,0.5
		c-0.1,0.2-0.3,0.2-0.5,0.2c-0.4,0-0.9,0-1.3,0c-0.4,0-0.7,0.1-0.9,0.4c-0.2,0.2-0.2,0.5-0.3,0.7c0,0.1,0,0.3,0,0.4
		c0,0.3,0.2,0.4,0.4,0.4c0.4,0,0.9,0,1.3,0c0.3,0,0.5,0.2,0.5,0.4c0,0,0,0.1,0,0.1c0,0.5,0,0.9,0,1.4c0,0.3-0.2,0.5-0.5,0.5
		c-0.5,0-0.9,0-1.4,0c-0.3,0-0.5-0.2-0.5-0.5c0-0.4,0-0.9,0-1.3c0-0.3-0.2-0.5-0.5-0.4c-0.3,0-0.5,0-0.8,0c-0.1,0-0.3,0-0.4-0.1
		c-0.1-0.1-0.1-0.2-0.1-0.3c0-0.4,0-0.7,0-1.1c0-0.2,0.2-0.4,0.4-0.4c0.1,0,0.3,0,0.4,0c0.3,0,0.6-0.1,0.9-0.3
		c0.1-0.1,0.3-0.2,0.3-0.4c0.1-0.3,0.2-0.5,0.1-0.8c0-0.2,0-0.4,0-0.6c0-0.2,0-0.4-0.1-0.6c0-0.2-0.2-0.3-0.4-0.4
		c-0.4-0.1-0.8-0.1-1.2,0c-0.2,0-0.4,0-0.6,0.3c-0.1,0.1-0.1,0.3-0.1,0.5c0,0.5,0,0.9,0,1.4c0,0.2-0.2,0.5-0.4,0.6
		c-0.1,0-0.2,0-0.3,0C16.4,34.5,16.2,34.4,15.9,34.4z"/>
</g>
</svg>
