<?xml version="1.0" encoding="utf-8"?>
<!-- Generator: Adobe Illustrator 22.0.1, SVG Export Plug-In . SVG Version: 6.00 Build 0)  -->
<svg version="1.1" id="Calque_1" xmlns="http://www.w3.org/2000/svg" xmlns:xlink="http://www.w3.org/1999/xlink" x="0px" y="0px"
	 viewBox="0 0 128 19" style="enable-background:new 0 0 128 19;" xml:space="preserve">
<g>
	<path d="M12.2,4.3c0.2,0,0.3,0.1,0.3,0.3V6c0,0.2-0.1,0.3-0.3,0.3H4.7c-0.3,0-0.5,0.1-0.6,0.2C3.9,6.7,3.9,6.9,3.9,7.2v0.5
		c0,0.6,0.3,0.8,0.8,0.8h5.6c0.9,0,1.5,0.2,2,0.7c0.4,0.4,0.7,1.1,0.7,1.9v1.2c0,0.7-0.2,1.3-0.6,1.8c-0.4,0.5-1.1,0.7-2,0.7H1.9
		c-0.2,0-0.3-0.1-0.3-0.3V13c0-0.2,0.1-0.3,0.3-0.3h7.9c0.3,0,0.5-0.1,0.6-0.2c0.1-0.2,0.2-0.4,0.2-0.6v-0.6c0-0.6-0.3-0.8-0.8-0.8
		H4.2c-0.9,0-1.5-0.2-2-0.7S1.6,8.6,1.6,7.8V6.7c0-0.7,0.2-1.3,0.6-1.8c0.4-0.5,1.1-0.7,2-0.7H12.2z"/>
	<path d="M25.8,6.5c0.7,0,1.2,0.1,1.7,0.2c0.5,0.1,0.8,0.3,1.1,0.5c0.3,0.2,0.5,0.6,0.6,0.9c0.1,0.4,0.2,0.8,0.2,1.4v4.9
		c0,0.2-0.1,0.3-0.3,0.3h-1.5c-0.2,0-0.3-0.1-0.3-0.3v-4.4c0-0.3,0-0.6-0.1-0.8c0-0.2-0.1-0.4-0.2-0.5s-0.3-0.2-0.5-0.3
		c-0.2-0.1-0.5-0.1-0.8-0.1H23v6c0,0.2-0.1,0.3-0.3,0.3h-1.5c-0.2,0-0.3-0.1-0.3-0.3v-6h-2.6c-0.3,0-0.6,0-0.8,0.1
		c-0.2,0.1-0.4,0.1-0.5,0.3c-0.1,0.1-0.2,0.3-0.3,0.5c0,0.2-0.1,0.5-0.1,0.8v4.4c0,0.2-0.1,0.3-0.3,0.3h-1.5c-0.2,0-0.3-0.1-0.3-0.3
		V9.6c0-0.5,0.1-1,0.2-1.4c0.1-0.4,0.3-0.7,0.6-0.9c0.3-0.2,0.6-0.4,1.1-0.5c0.5-0.1,1-0.2,1.7-0.2H25.8z"/>
	<path d="M37.9,6.5c0.7,0,1.2,0.1,1.7,0.2C40,6.8,40.4,7,40.7,7.2c0.3,0.2,0.5,0.6,0.6,0.9c0.1,0.4,0.2,0.8,0.2,1.4v4
		c0,0.2,0,0.4-0.1,0.6c0,0.2-0.1,0.3-0.2,0.4c-0.1,0.1-0.2,0.2-0.3,0.2c-0.1,0-0.3,0.1-0.5,0.1h-7.1c-0.4,0-0.8,0-1.1-0.1
		c-0.3-0.1-0.5-0.2-0.7-0.4c-0.2-0.2-0.3-0.4-0.4-0.7c-0.1-0.3-0.1-0.6-0.1-1v-0.7c0-0.3,0-0.6,0.1-0.8c0.1-0.2,0.2-0.5,0.4-0.6
		c0.2-0.2,0.4-0.3,0.7-0.4c0.3-0.1,0.7-0.1,1.1-0.1h6.1V9.7c0-0.2,0-0.4-0.1-0.6c-0.1-0.2-0.1-0.3-0.3-0.4c-0.1-0.1-0.3-0.2-0.5-0.2
		c-0.2,0-0.5-0.1-0.8-0.1h-6.3c-0.2,0-0.3-0.1-0.3-0.3V6.8c0-0.2,0.1-0.3,0.3-0.3H37.9z M38.8,13.1c0.2,0,0.3,0,0.3-0.1
		c0.1-0.1,0.1-0.2,0.1-0.4v-1.3h-5.5c-0.3,0-0.5,0.1-0.7,0.2s-0.2,0.3-0.2,0.5v0.3c0,0.3,0.1,0.5,0.2,0.6c0.1,0.1,0.3,0.2,0.7,0.2
		H38.8z"/>
	<path d="M50.8,6.5c0.2,0,0.3,0.1,0.3,0.3v1.3c0,0.2-0.1,0.3-0.3,0.3h-4c-0.3,0-0.6,0-0.8,0.1c-0.2,0.1-0.4,0.1-0.5,0.3
		c-0.1,0.1-0.2,0.3-0.3,0.5c0,0.2-0.1,0.5-0.1,0.8v4.5c0,0.2-0.1,0.3-0.3,0.3h-1.5c-0.2,0-0.3-0.1-0.3-0.3V9.6c0-0.5,0.1-1,0.2-1.4
		c0.1-0.4,0.3-0.7,0.6-0.9C44,7,44.4,6.8,44.9,6.7c0.5-0.1,1-0.2,1.7-0.2H50.8z"/>
	<path d="M53.5,6.5v-2c0-0.2,0.1-0.3,0.3-0.3h1.5c0.2,0,0.3,0.1,0.3,0.3v2h2.6c0.2,0,0.3,0.1,0.3,0.3V8c0,0.2-0.1,0.3-0.3,0.3h-2.6
		v3.5c0,0.4,0.1,0.7,0.3,0.9c0.2,0.2,0.5,0.3,1,0.3h1.5c0.2,0,0.3,0.1,0.3,0.3v1.2c0,0.2-0.1,0.3-0.3,0.3h-1.8
		c-0.6,0-1.1-0.1-1.5-0.2c-0.4-0.1-0.7-0.3-0.9-0.5c-0.2-0.2-0.4-0.5-0.5-0.9c-0.1-0.4-0.1-0.8-0.1-1.4V8.3h-1.4
		c-0.2,0-0.3-0.1-0.3-0.3V6.8c0-0.2,0.1-0.3,0.3-0.3H53.5z"/>
	<path d="M75.7,4.3c0.2,0,0.3,0.1,0.3,0.3V6c0,0.2-0.1,0.3-0.3,0.3h-6.5c-0.4,0-0.7,0-1,0.1c-0.3,0.1-0.5,0.2-0.6,0.3
		c-0.2,0.2-0.3,0.4-0.3,0.6c-0.1,0.3-0.1,0.6-0.1,1v0.3h8.4c0.2,0,0.3,0.1,0.3,0.3v1.2c0,0.2-0.1,0.3-0.3,0.3h-8.4v3.9
		c0,0.2-0.1,0.3-0.3,0.3h-1.6c-0.2,0-0.3-0.1-0.3-0.3V8.2c0-0.7,0.1-1.3,0.2-1.8c0.2-0.5,0.4-0.9,0.7-1.2c0.3-0.3,0.8-0.5,1.3-0.7
		c0.5-0.1,1.2-0.2,1.9-0.2H75.7z"/>
	<path d="M85.1,6.5c0.7,0,1.2,0.1,1.7,0.2c0.5,0.1,0.8,0.3,1.1,0.5c0.3,0.2,0.5,0.6,0.6,0.9c0.1,0.4,0.2,0.8,0.2,1.4v2.2
		c0,0.5-0.1,1-0.2,1.4c-0.1,0.4-0.3,0.7-0.6,0.9c-0.3,0.2-0.6,0.4-1.1,0.5c-0.5,0.1-1,0.2-1.7,0.2h-4.2c-0.7,0-1.2-0.1-1.7-0.2
		c-0.5-0.1-0.8-0.3-1.1-0.5c-0.3-0.2-0.5-0.6-0.6-0.9c-0.1-0.4-0.2-0.8-0.2-1.4V9.6c0-0.5,0.1-1,0.2-1.4c0.1-0.4,0.3-0.7,0.6-0.9
		c0.3-0.2,0.6-0.4,1.1-0.5c0.5-0.1,1-0.2,1.7-0.2H85.1z M79.5,11.4c0,0.3,0,0.6,0.1,0.8c0.1,0.2,0.1,0.4,0.3,0.5s0.3,0.2,0.5,0.3
		c0.2,0.1,0.5,0.1,0.8,0.1h3.8c0.3,0,0.6,0,0.8-0.1c0.2-0.1,0.4-0.1,0.5-0.3c0.1-0.1,0.2-0.3,0.3-0.5c0-0.2,0.1-0.5,0.1-0.8V9.9
		c0-0.3,0-0.6-0.1-0.8c-0.1-0.2-0.1-0.4-0.3-0.5c-0.1-0.1-0.3-0.2-0.5-0.3c-0.2,0-0.5-0.1-0.8-0.1h-3.8c-0.3,0-0.6,0-0.8,0.1
		c-0.2,0.1-0.4,0.1-0.5,0.3c-0.1,0.1-0.2,0.3-0.3,0.5c0,0.2-0.1,0.5-0.1,0.8V11.4z"/>
	<path d="M98.2,6.5c0.2,0,0.3,0.1,0.3,0.3v1.3c0,0.2-0.1,0.3-0.3,0.3h-4c-0.3,0-0.6,0-0.8,0.1c-0.2,0.1-0.4,0.1-0.5,0.3
		c-0.1,0.1-0.2,0.3-0.3,0.5c-0.1,0.2-0.1,0.5-0.1,0.8v4.5c0,0.2-0.1,0.3-0.3,0.3h-1.5c-0.2,0-0.3-0.1-0.3-0.3V9.6
		c0-0.5,0.1-1,0.2-1.4c0.1-0.4,0.3-0.7,0.6-0.9c0.3-0.2,0.6-0.4,1.1-0.5c0.5-0.1,1-0.2,1.7-0.2H98.2z"/>
	<path d="M110.9,6.5c0.7,0,1.2,0.1,1.7,0.2c0.5,0.1,0.8,0.3,1.1,0.5c0.3,0.2,0.5,0.6,0.6,0.9c0.1,0.4,0.2,0.8,0.2,1.4v4.9
		c0,0.2-0.1,0.3-0.3,0.3h-1.5c-0.2,0-0.3-0.1-0.3-0.3v-4.4c0-0.3,0-0.6-0.1-0.8c0-0.2-0.1-0.4-0.2-0.5c-0.1-0.1-0.3-0.2-0.5-0.3
		c-0.2-0.1-0.5-0.1-0.8-0.1h-2.6v6c0,0.2-0.1,0.3-0.3,0.3h-1.5c-0.2,0-0.3-0.1-0.3-0.3v-6h-2.6c-0.3,0-0.6,0-0.8,0.1
		c-0.2,0.1-0.4,0.1-0.5,0.3s-0.2,0.3-0.3,0.5c-0.1,0.2-0.1,0.5-0.1,0.8v4.4c0,0.2-0.1,0.3-0.3,0.3H100c-0.2,0-0.3-0.1-0.3-0.3V9.6
		c0-0.5,0.1-1,0.2-1.4c0.1-0.4,0.3-0.7,0.6-0.9c0.3-0.2,0.6-0.4,1.1-0.5c0.5-0.1,1-0.2,1.7-0.2H110.9z"/>
	<path d="M125.8,6.5c0.2,0,0.3,0.1,0.3,0.3V8c0,0.2-0.1,0.3-0.3,0.3H119c-0.3,0-0.5,0.1-0.6,0.2c-0.1,0.1-0.2,0.3-0.2,0.5v0.2
		c0,0.2,0.1,0.4,0.2,0.5c0.1,0.1,0.3,0.2,0.6,0.2h5.1c0.8,0,1.4,0.2,1.8,0.5c0.4,0.4,0.5,0.8,0.5,1.5v0.8c0,0.3,0,0.6-0.1,0.9
		c-0.1,0.3-0.2,0.5-0.4,0.7c-0.2,0.2-0.4,0.3-0.7,0.4c-0.3,0.1-0.7,0.1-1.1,0.1h-7.7c-0.2,0-0.3-0.1-0.3-0.3v-1.2
		c0-0.2,0.1-0.3,0.3-0.3h7.1c0.3,0,0.5-0.1,0.7-0.2c0.1-0.1,0.2-0.3,0.2-0.6v-0.4c0-0.2-0.1-0.4-0.2-0.5c-0.1-0.1-0.3-0.2-0.7-0.2
		h-5c-0.8,0-1.4-0.2-1.8-0.5c-0.4-0.3-0.5-0.8-0.5-1.5V8.6c0-0.3,0-0.6,0.1-0.8s0.2-0.5,0.4-0.7c0.2-0.2,0.4-0.3,0.7-0.4
		c0.3-0.1,0.7-0.1,1.1-0.1H125.8z"/>
</g>
</svg>
