<?xml version="1.0" encoding="utf-8"?>
<!-- Generator: Adobe Illustrator 22.0.1, SVG Export Plug-In . SVG Version: 6.00 Build 0)  -->
<svg version="1.1" id="Calque_1" xmlns="http://www.w3.org/2000/svg" xmlns:xlink="http://www.w3.org/1999/xlink" x="0px" y="0px"
	 viewBox="0 0 128 19" style="enable-background:new 0 0 128 19;" xml:space="preserve">
<style type="text/css">
	.st0{fill:#A3195B;}
</style>
<g>
	<path d="M27.8,5c0.2,0,0.3,0.1,0.3,0.3v1.2c0,0.2-0.1,0.3-0.3,0.3h-6.5c-0.2,0-0.4,0.1-0.5,0.2c-0.1,0.1-0.2,0.3-0.2,0.5V8
		c0,0.5,0.2,0.7,0.7,0.7h4.8c0.7,0,1.3,0.2,1.7,0.6s0.6,0.9,0.6,1.6v1c0,0.6-0.2,1.1-0.6,1.5c-0.4,0.4-0.9,0.6-1.7,0.6h-7.2
		c-0.2,0-0.3-0.1-0.3-0.3v-1.2c0-0.2,0.1-0.3,0.3-0.3h6.8c0.2,0,0.4-0.1,0.5-0.2s0.2-0.3,0.2-0.5V11c0-0.5-0.2-0.7-0.7-0.7h-4.8
		c-0.7,0-1.3-0.2-1.7-0.6c-0.4-0.4-0.6-0.9-0.6-1.6V7.1c0-0.6,0.2-1.1,0.6-1.5C19.6,5.2,20.1,5,20.9,5H27.8z"/>
	<path d="M39.5,6.9c0.6,0,1.1,0,1.5,0.1c0.4,0.1,0.7,0.3,0.9,0.5c0.2,0.2,0.4,0.5,0.5,0.8c0.1,0.3,0.1,0.7,0.1,1.2v4.2
		c0,0.2-0.1,0.3-0.3,0.3H41c-0.2,0-0.3-0.1-0.3-0.3V10c0-0.3,0-0.5-0.1-0.7c0-0.2-0.1-0.3-0.2-0.4S40.2,8.7,40,8.7
		c-0.2,0-0.4-0.1-0.7-0.1h-2.3v5.2c0,0.2-0.1,0.3-0.3,0.3h-1.3c-0.2,0-0.3-0.1-0.3-0.3V8.6H33c-0.3,0-0.5,0-0.7,0.1
		c-0.2,0-0.3,0.1-0.4,0.2c-0.1,0.1-0.2,0.3-0.2,0.4c0,0.2-0.1,0.4-0.1,0.7v3.7c0,0.2-0.1,0.3-0.3,0.3h-1.3c-0.2,0-0.3-0.1-0.3-0.3
		V9.6c0-0.5,0.1-0.9,0.2-1.2C30,8,30.2,7.8,30.5,7.6c0.2-0.2,0.6-0.4,0.9-0.5c0.4-0.1,0.9-0.1,1.5-0.1H39.5z"/>
	<path d="M49.9,6.9c0.6,0,1.1,0,1.5,0.1c0.4,0.1,0.7,0.3,0.9,0.5c0.2,0.2,0.4,0.5,0.5,0.8c0.1,0.3,0.2,0.7,0.2,1.2V13
		c0,0.2,0,0.4,0,0.5c0,0.1-0.1,0.2-0.2,0.3c-0.1,0.1-0.2,0.1-0.3,0.2c-0.1,0-0.3,0-0.5,0h-6.2c-0.4,0-0.7,0-0.9-0.1
		c-0.3-0.1-0.5-0.2-0.6-0.3c-0.2-0.1-0.3-0.3-0.3-0.6c-0.1-0.2-0.1-0.5-0.1-0.8v-0.6c0-0.3,0-0.5,0.1-0.7c0.1-0.2,0.2-0.4,0.3-0.5
		c0.2-0.1,0.4-0.3,0.6-0.3c0.3-0.1,0.6-0.1,0.9-0.1h5.3V9.6c0-0.2,0-0.4-0.1-0.5c0-0.1-0.1-0.3-0.2-0.4c-0.1-0.1-0.2-0.2-0.4-0.2
		c-0.2,0-0.4-0.1-0.7-0.1h-5.4c-0.2,0-0.2-0.1-0.2-0.2V7.2c0-0.2,0.1-0.2,0.2-0.2H49.9z M50.7,12.6c0.1,0,0.2,0,0.3-0.1
		c0.1-0.1,0.1-0.2,0.1-0.3V11h-4.7c-0.3,0-0.5,0.1-0.6,0.2c-0.1,0.1-0.2,0.3-0.2,0.5v0.3c0,0.2,0.1,0.4,0.2,0.5
		c0.1,0.1,0.3,0.2,0.6,0.2H50.7z"/>
	<path d="M61,6.9c0.2,0,0.2,0.1,0.2,0.2v1.1c0,0.2-0.1,0.2-0.2,0.2h-3.4c-0.3,0-0.5,0-0.7,0.1c-0.2,0-0.3,0.1-0.4,0.2
		c-0.1,0.1-0.2,0.3-0.2,0.4c0,0.2-0.1,0.4-0.1,0.7v3.8c0,0.2-0.1,0.3-0.3,0.3h-1.3c-0.2,0-0.3-0.1-0.3-0.3V9.6
		c0-0.5,0.1-0.9,0.2-1.2C54.5,8,54.7,7.8,55,7.6c0.2-0.2,0.6-0.4,0.9-0.5c0.4-0.1,0.9-0.1,1.5-0.1H61z"/>
	<path d="M63.4,6.9V5.2c0-0.2,0.1-0.3,0.3-0.3h1.3c0.2,0,0.3,0.1,0.3,0.3v1.7h2.3c0.2,0,0.2,0.1,0.2,0.2v1.1c0,0.2-0.1,0.2-0.2,0.2
		h-2.3v3c0,0.4,0.1,0.6,0.2,0.8c0.1,0.2,0.4,0.3,0.9,0.3h1.3c0.2,0,0.2,0.1,0.2,0.2v1.1c0,0.2-0.1,0.2-0.2,0.2H66
		c-0.5,0-0.9,0-1.3-0.1c-0.3-0.1-0.6-0.2-0.8-0.5c-0.2-0.2-0.3-0.5-0.4-0.8c-0.1-0.3-0.1-0.7-0.1-1.2v-3h-1.2
		c-0.2,0-0.2-0.1-0.2-0.2V7.2c0-0.2,0.1-0.2,0.2-0.2H63.4z"/>
	<path d="M82.4,5c0.2,0,0.3,0.1,0.3,0.3v1.2c0,0.2-0.1,0.3-0.3,0.3h-5.6c-0.3,0-0.6,0-0.8,0.1S75.6,7,75.4,7.2
		c-0.1,0.1-0.2,0.3-0.3,0.5c-0.1,0.2-0.1,0.5-0.1,0.8v0.3h7.3c0.2,0,0.3,0.1,0.3,0.3v1c0,0.2-0.1,0.3-0.3,0.3h-7.3v3.4
		c0,0.2-0.1,0.3-0.3,0.3h-1.4c-0.2,0-0.3-0.1-0.3-0.3V8.4c0-0.6,0.1-1.1,0.2-1.6c0.1-0.4,0.3-0.8,0.6-1.1s0.7-0.5,1.1-0.6
		c0.5-0.1,1-0.2,1.7-0.2H82.4z"/>
	<path d="M90.6,6.9c0.6,0,1.1,0,1.5,0.1c0.4,0.1,0.7,0.3,1,0.5c0.2,0.2,0.4,0.5,0.5,0.8c0.1,0.3,0.2,0.7,0.2,1.2v1.9
		c0,0.5-0.1,0.9-0.2,1.2c-0.1,0.3-0.3,0.6-0.5,0.8c-0.2,0.2-0.6,0.4-1,0.5C91.6,14,91.1,14,90.6,14h-3.7c-0.6,0-1.1,0-1.5-0.1
		c-0.4-0.1-0.7-0.2-0.9-0.5c-0.2-0.2-0.4-0.5-0.5-0.8c-0.1-0.3-0.2-0.7-0.2-1.2V9.6c0-0.5,0.1-0.9,0.2-1.2c0.1-0.3,0.3-0.6,0.5-0.8
		c0.2-0.2,0.6-0.4,0.9-0.5c0.4-0.1,0.9-0.1,1.5-0.1H90.6z M85.7,11.1c0,0.3,0,0.5,0.1,0.7c0,0.2,0.1,0.3,0.2,0.4
		c0.1,0.1,0.3,0.2,0.4,0.2c0.2,0,0.4,0.1,0.7,0.1h3.3c0.3,0,0.5,0,0.7-0.1c0.2,0,0.3-0.1,0.4-0.2c0.1-0.1,0.2-0.3,0.2-0.4
		c0-0.2,0.1-0.4,0.1-0.7V9.9c0-0.3,0-0.5-0.1-0.7c0-0.2-0.1-0.3-0.2-0.4c-0.1-0.1-0.3-0.2-0.4-0.2c-0.2,0-0.4-0.1-0.7-0.1h-3.3
		c-0.3,0-0.5,0-0.7,0.1c-0.2,0-0.3,0.1-0.4,0.2c-0.1,0.1-0.2,0.3-0.2,0.4c0,0.2-0.1,0.4-0.1,0.7V11.1z"/>
	<path d="M101.8,6.9c0.2,0,0.2,0.1,0.2,0.2v1.1c0,0.2-0.1,0.2-0.2,0.2h-3.4c-0.3,0-0.5,0-0.7,0.1c-0.2,0-0.3,0.1-0.4,0.2
		c-0.1,0.1-0.2,0.3-0.2,0.4C97,9.4,97,9.7,97,9.9v3.8c0,0.2-0.1,0.3-0.3,0.3h-1.3c-0.2,0-0.3-0.1-0.3-0.3V9.6c0-0.5,0.1-0.9,0.2-1.2
		c0.1-0.3,0.3-0.6,0.5-0.8c0.2-0.2,0.6-0.4,0.9-0.5c0.4-0.1,0.9-0.1,1.5-0.1H101.8z"/>
	<path d="M112.7,6.9c0.6,0,1.1,0,1.5,0.1c0.4,0.1,0.7,0.3,0.9,0.5c0.2,0.2,0.4,0.5,0.5,0.8c0.1,0.3,0.1,0.7,0.1,1.2v4.2
		c0,0.2-0.1,0.3-0.3,0.3h-1.3c-0.2,0-0.3-0.1-0.3-0.3V10c0-0.3,0-0.5-0.1-0.7c0-0.2-0.1-0.3-0.2-0.4c-0.1-0.1-0.2-0.2-0.4-0.2
		c-0.2,0-0.4-0.1-0.7-0.1h-2.3v5.2c0,0.2-0.1,0.3-0.3,0.3h-1.3c-0.2,0-0.3-0.1-0.3-0.3V8.6h-2.2c-0.3,0-0.5,0-0.7,0.1
		c-0.2,0-0.3,0.1-0.4,0.2c-0.1,0.1-0.2,0.3-0.2,0.4c0,0.2-0.1,0.4-0.1,0.7v3.7c0,0.2-0.1,0.3-0.3,0.3h-1.3c-0.2,0-0.3-0.1-0.3-0.3
		V9.6c0-0.5,0.1-0.9,0.2-1.2c0.1-0.3,0.3-0.6,0.5-0.8c0.2-0.2,0.6-0.4,0.9-0.5c0.4-0.1,0.9-0.1,1.5-0.1H112.7z"/>
	<path d="M125.6,6.9c0.2,0,0.2,0.1,0.2,0.2v1c0,0.2-0.1,0.2-0.2,0.2h-5.8c-0.3,0-0.5,0-0.6,0.1C119.1,8.7,119,8.8,119,9v0.2
		c0,0.2,0.1,0.3,0.2,0.4c0.1,0.1,0.3,0.1,0.6,0.1h4.4c0.7,0,1.2,0.2,1.5,0.5c0.3,0.3,0.5,0.7,0.5,1.3v0.7c0,0.3,0,0.5-0.1,0.8
		s-0.2,0.4-0.3,0.6c-0.2,0.2-0.4,0.3-0.6,0.4c-0.3,0.1-0.6,0.1-1,0.1h-6.6c-0.2,0-0.2-0.1-0.2-0.2v-1c0-0.2,0.1-0.2,0.2-0.2h6.1
		c0.3,0,0.5,0,0.6-0.1c0.1-0.1,0.2-0.3,0.2-0.5v-0.3c0-0.2-0.1-0.3-0.2-0.4c-0.1-0.1-0.3-0.1-0.6-0.1h-4.3c-0.7,0-1.2-0.1-1.5-0.4
		c-0.3-0.3-0.5-0.7-0.5-1.3V8.7c0-0.3,0-0.5,0.1-0.7c0.1-0.2,0.2-0.4,0.3-0.6c0.2-0.2,0.4-0.3,0.6-0.4c0.3-0.1,0.6-0.1,1-0.1H125.6z
		"/>
</g>
<g>
	<g>
		<path class="st0" d="M11.1,0.8v3c0,0.1-0.1,0.2-0.2,0.3L5.6,6.8C5.5,6.9,5.4,6.9,5.4,7.2v5.2L3,11.3c-0.1,0-0.2-0.2-0.2-0.3
			c0-1.9,0-3.7,0-5.6C2.8,5.3,3,5.1,3.2,5L11.1,0.8z"/>
	</g>
	<g>
		<path class="st0" d="M14.1,7.7c-0.7-0.4-1.3-0.7-2-1.1c-0.4-0.2-0.7-0.4-1.2-0.1C9.9,7,9,7.4,8.1,7.9C8,8,7.8,8.1,7.8,8.3
			c0,0.9,0,1.8,0,2.8c1.3-0.7,2.6-1.3,3.8-2c0,0.9,0,1.7,0,2.5c0,0.1-0.1,0.3-0.2,0.3c-1,0.6-1.9,1.2-2.9,1.7c0,0.1,0.1,0.2,0.1,0.3
			c0,0,0,0.1,0,0.1c0,0.1,0,0.1,0,0.2c0,0,0,0,0,0.1c0.2,0,0.3,0,0.4,0c0.1,0,0.1,0,0.1,0c0,0,0-0.1,0-0.1c0-0.1,0-0.2,0-0.3
			c0-0.3,0.3-0.5,0.6-0.5c0.1,0,0.1,0,0.2,0c0.1,0,0.2,0,0.3,0c0.2,0,0.3,0.1,0.4,0.2c0.1,0.1,0.2,0.3,0.2,0.4c0,0.2,0,0.3,0,0.5
			c0,0.2-0.1,0.3-0.2,0.4c-0.1,0.1-0.3,0.2-0.4,0.2c-0.1,0-0.2,0-0.2,0c-0.1,0-0.1,0-0.1,0c0,0,0,0,0,0c0,0,0,0,0,0.1
			c0,0.1,0,0.2,0,0.3c0,0.1,0,0.2,0,0.2l3.8-2.1c0.2-0.1,0.6-0.4,0.6-0.7V8C14.3,7.9,14.1,7.7,14.1,7.7z"/>
	</g>
	<path class="st0" d="M6.4,16.1c-0.1,0-0.2,0-0.3,0c-0.1,0-0.2,0-0.3-0.2c0,0,0-0.1,0-0.1c0-0.2,0-0.5,0-0.7c0-0.1,0.1-0.2,0.2-0.3
		c0,0,0.1,0,0.1,0c0.2,0,0.4,0,0.6,0c0.1,0,0.2,0,0.3-0.1c0,0,0.1-0.1,0.1-0.1c0-0.1,0-0.2,0-0.3c0-0.1,0-0.3,0-0.4
		c0-0.1,0.1-0.2,0.2-0.2c0.2,0,0.4,0,0.6,0c0.1,0,0.2,0.1,0.2,0.2c0,0.1,0,0.2,0,0.3c0,0.1,0,0.2,0,0.3c0,0.1,0,0.1,0.1,0.1
		c0.1,0,0.2,0,0.2,0c0.2,0,0.3,0,0.5,0c0.2,0,0.4-0.1,0.5-0.3c0-0.1,0.1-0.2,0.1-0.3c0-0.1,0-0.2,0-0.3c0-0.1,0.1-0.1,0.2-0.1
		c0.2,0,0.3,0,0.5,0c0.1,0,0.2,0.1,0.2,0.2c0,0.2,0,0.3,0,0.5c0,0.1-0.1,0.2-0.2,0.2c-0.1,0-0.2,0-0.3,0c-0.1,0-0.3,0.1-0.4,0.1
		c-0.1,0.1-0.1,0.2-0.2,0.3c0,0.1,0,0.1,0,0.2c0,0.2,0,0.3,0,0.5c0,0.1,0,0.1-0.1,0.2c-0.1,0.1-0.1,0.1-0.2,0.1c-0.2,0-0.4,0-0.6,0
		c-0.2,0-0.3,0.1-0.4,0.2C8.1,16.4,8,16.5,8,16.7c0,0.1,0,0.1,0,0.2C8,17,8.1,17,8.2,17c0.2,0,0.4,0,0.6,0c0.1,0,0.2,0.1,0.2,0.2
		c0,0,0,0,0,0.1c0,0.2,0,0.4,0,0.6c0,0.1-0.1,0.3-0.3,0.3c-0.2,0-0.4,0-0.6,0c-0.1,0-0.2-0.1-0.2-0.2c0-0.2,0-0.4,0-0.6
		c0-0.1-0.1-0.2-0.2-0.2c-0.1,0-0.2,0-0.3,0c-0.1,0-0.1,0-0.2-0.1c0,0-0.1-0.1-0.1-0.1c0-0.2,0-0.3,0-0.5c0-0.1,0.1-0.2,0.2-0.2
		c0.1,0,0.1,0,0.2,0c0.2,0,0.3,0,0.4-0.1C8,16.1,8.1,16,8.1,16c0-0.1,0.1-0.2,0.1-0.4c0-0.1,0-0.2,0-0.3c0-0.1,0-0.2,0-0.3
		c0-0.1-0.1-0.1-0.2-0.2c-0.2,0-0.4,0-0.6,0c-0.1,0-0.2,0-0.3,0.1c0,0.1-0.1,0.1-0.1,0.2c0,0.2,0,0.4,0,0.6c0,0.1-0.1,0.2-0.2,0.3
		c0,0-0.1,0-0.1,0C6.6,16.1,6.5,16.1,6.4,16.1z"/>
</g>
</svg>
