<svg xmlns="http://www.w3.org/2000/svg" xmlns:xlink="http://www.w3.org/1999/xlink" xmlns:serif="http://www.serif.com/" width="100%" height="100%" viewBox="0 0 45 45" xml:space="preserve" style="fill-rule:evenodd;clip-rule:evenodd;stroke-linejoin:round;stroke-miterlimit:1.41421;">
    <g id="Plan-de-travail1" serif:id="Plan de travail1" transform="matrix(0.959136,0,0,0.959136,-14.8394,-14.0339)">
        <rect x="15.472" y="14.632" width="46.917" height="46.917" style="fill:none;"></rect>
        <g id="XMLID_838_" transform="matrix(1.0426,0,0,1.0426,1.06288,4.25791)">
            <path id="XMLID_844_" d="M21.02,47.28C21.15,47.45 21.3,47.6 21.47,47.73C21.62,47.84 21.81,47.89 22,47.89L36.03,47.89C36.04,47.81 36.12,47.83 36.17,47.81C36.63,47.6 36.9,47.25 36.93,46.74C36.97,46.02 36.42,45.48 35.66,45.48C31.64,45.48 27.61,45.48 23.59,45.49C23.33,45.49 23.28,45.42 23.29,45.18L23.29,42.5C23.29,41.83 22.75,41.29 22.08,41.29C21.41,41.29 20.87,41.83 20.87,42.5L20.87,46.77C20.86,46.94 20.91,47.13 21.02,47.28Z" style="fill:url(#_Linear1);fill-rule:nonzero;"></path>
            <path id="XMLID_841_" d="M51.66,37.48C51.32,35.53 49.84,33.93 47.97,33.55C46.39,33.23 44.94,33.62 43.65,34.57C43.49,34.69 43.4,34.7 43.25,34.58C43.02,34.4 42.77,34.24 42.52,34.11C40.07,32.8 37.03,33.38 35.68,36.18C34.77,38.06 35,39.93 35.92,41.74C36.77,43.42 38.1,44.68 39.6,45.78C40.72,46.6 41.92,47.27 43.15,47.9L43.69,47.9C45.93,46.84 47.99,45.54 49.65,43.67C50.71,42.49 51.44,41.14 51.71,39.56L51.66,37.48ZM48.46,41.23C47.51,42.65 46.19,43.66 44.77,44.55C44.39,44.79 44,45 43.62,45.23C43.52,45.29 43.44,45.32 43.32,45.25C41.58,44.29 39.95,43.21 38.71,41.62C38.02,40.73 37.55,39.75 37.52,38.5C37.57,37.46 37.97,36.53 39.06,36.04C39.83,35.69 40.6,35.85 41.33,36.2C41.77,36.41 42.14,36.72 42.44,37.11C43.03,37.86 43.87,37.86 44.47,37.1C45.03,36.4 45.75,35.97 46.64,35.87C47.98,35.72 49.08,36.6 49.32,37.96C49.52,39.19 49.12,40.25 48.46,41.23Z" style="fill:url(#_Linear2);fill-rule:nonzero;"></path>
            <path id="XMLID_840_" d="M20.86,39.31C20.86,39.91 21.34,40.39 21.94,40.39L22.19,40.39C22.79,40.39 23.27,39.91 23.27,39.31L23.27,39.29C23.27,38.76 22.84,38.33 22.31,38.33L21.82,38.33C21.29,38.33 20.86,38.76 20.86,39.29L20.86,39.31Z" style="fill:url(#_Linear3);fill-rule:nonzero;"></path>
            <path id="XMLID_843_" d="M51.78,29.77C51.62,29.35 51.3,29.08 50.97,28.81C46.37,24.98 37,17 37,17C37,17 35.86,16.99 35.49,17.31C34.87,17.75 34.32,18.28 33.74,18.77C29.61,22.2 25.5,25.63 21.37,29.06C21.15,29.24 21.02,29.49 20.86,29.71L20.86,36.06C20.86,36.73 21.4,37.27 22.07,37.27C22.74,37.27 23.28,36.73 23.28,36.06L23.28,31.59C23.28,30.97 23.55,30.39 24.03,29.99C28.02,26.67 32.01,23.34 36,20.01C36.19,19.85 36.47,19.85 36.66,20.01C38.78,21.78 40.9,23.55 43.02,25.31C45.25,27.17 47.48,29.03 49.72,30.89C50.47,31.51 51.31,31.32 51.73,30.45" style="fill:url(#_Linear4);fill-rule:nonzero;"></path>
        </g>
    </g>
    <defs>
        <linearGradient id="_Linear1" x1="0" y1="0" x2="1" y2="0" gradientUnits="userSpaceOnUse" gradientTransform="matrix(16.0616,0,0,16.0616,20.8604,44.5828)"><stop offset="0" style="stop-color:rgb(241,90,36);stop-opacity:1"></stop><stop offset="1" style="stop-color:rgb(247,147,30);stop-opacity:1"></stop></linearGradient>
        <linearGradient id="_Linear2" x1="0" y1="0" x2="1" y2="0" gradientUnits="userSpaceOnUse" gradientTransform="matrix(16.6836,0,0,16.6836,35.0958,40.6586)"><stop offset="0" style="stop-color:rgb(241,90,36);stop-opacity:1"></stop><stop offset="1" style="stop-color:rgb(247,147,30);stop-opacity:1"></stop></linearGradient>
        <linearGradient id="_Linear3" x1="0" y1="0" x2="1" y2="0" gradientUnits="userSpaceOnUse" gradientTransform="matrix(2.4109,0,0,2.4109,20.8604,39.3546)"><stop offset="0" style="stop-color:rgb(241,90,36);stop-opacity:1"></stop><stop offset="1" style="stop-color:rgb(247,147,30);stop-opacity:1"></stop></linearGradient>
        <linearGradient id="_Linear4" x1="0" y1="0" x2="1" y2="0" gradientUnits="userSpaceOnUse" gradientTransform="matrix(30.919,0,0,30.919,20.8604,27.1335)"><stop offset="0" style="stop-color:rgb(241,90,36);stop-opacity:1"></stop><stop offset="1" style="stop-color:rgb(247,147,30);stop-opacity:1"></stop></linearGradient>
    </defs>
</svg>