<?xml version="1.0" encoding="UTF-8" standalone="no"?><!DOCTYPE svg PUBLIC "-//W3C//DTD SVG 1.1//EN" "http://www.w3.org/Graphics/SVG/1.1/DTD/svg11.dtd"><svg width="144" height="50px" viewBox="0 0 1101 382" version="1.1" xmlns="http://www.w3.org/2000/svg" xmlns:xlink="http://www.w3.org/1999/xlink" xml:space="preserve" xmlns:serif="http://www.serif.com/" style="fill-rule:evenodd;clip-rule:evenodd;stroke-miterlimit:1.41421;"><rect id="Plan-de-travail1" serif:id="Plan de travail1" x="0" y="0" width="1100.11" height="381.392" style="fill:none;"/><g><g><path d="M260.341,91.758l0,0.09l0,-0.09l-0.214,0l-0.188,0l0,0.09l0,-0.09c-101.348,0.158 -182.854,68.285 -192.603,155.607l-4.587,0.046c-7.291,-28.919 -32.794,-44.979 -58.872,-60.609c28.29,4.771 63.178,14.676 81.276,-12.379c14.79,-23.967 -10.792,-49.977 -26.397,-70.262c26.611,15.901 56.097,32.938 77.86,17.355c20.634,-16.265 11.767,-47.931 5.187,-71.557c19.064,24.92 45.978,48 75.004,40.162c19.841,-5.496 36.64,-49.317 43.347,-85.549l0.015,0c6.691,36.232 23.448,80.053 43.289,85.549c29.032,7.838 55.94,-15.242 75.02,-40.162c-6.596,23.626 -15.448,55.292 5.188,71.557c21.735,15.583 51.247,-1.454 77.857,-17.355c-15.619,20.285 -41.175,46.295 -26.412,70.262c18.099,27.055 53.003,17.15 81.277,12.379c-26.078,15.63 -51.566,31.69 -58.883,60.609l-4.571,-0.046c-9.749,-87.322 -91.245,-155.449 -192.593,-155.607Z" style="fill:#f58345;"/><path d="M260.864,296.024c-71.032,0 -75.381,-86.232 -58.711,-148.884c8.902,7.382 17.79,14.766 26.694,22.171c5.186,-7.768 10.348,-15.492 15.525,-23.262c5.178,6.543 11.32,13.017 16.492,19.56c5.192,-6.543 11.329,-13.017 16.506,-19.56c5.188,7.77 10.364,15.494 15.541,23.262l26.679,-22.171c16.679,62.652 12.321,148.884 -58.726,148.884Z" style="fill:url(#_Radial1);fill-rule:nonzero;"/><path d="M260.864,296.024c-71.032,0 -75.381,-86.232 -58.711,-148.884c8.902,7.382 17.79,14.766 26.694,22.171c5.186,-7.768 10.348,-15.492 15.525,-23.262c5.178,6.543 11.32,13.017 16.492,19.56c5.192,-6.543 11.329,-13.017 16.506,-19.56c5.188,7.77 10.364,15.494 15.541,23.262l26.679,-22.171c16.679,62.652 12.321,148.884 -58.726,148.884Z" style="fill:none;stroke:#ed1c24;stroke-width:2.2px;"/><path d="M254.658,295.796l0,71.012c-41.943,-77.326 -99.234,-112.991 -181.1,-107.721c81.771,18.195 105.721,117.08 187.306,119.874c81.599,-2.794 105.533,-101.679 187.32,-119.874c-81.839,-5.27 -139.146,30.395 -181.074,107.721l0,-71.012c-2.035,0.159 -4.112,0.228 -6.246,0.228c-2.131,0 -4.213,-0.069 -6.206,-0.228Z" style="fill:url(#_Radial2);fill-rule:nonzero;"/><path d="M254.658,295.796l0,71.012c-41.943,-77.326 -99.234,-112.991 -181.1,-107.721c81.771,18.195 105.721,117.08 187.306,119.874c81.599,-2.794 105.533,-101.679 187.32,-119.874c-81.839,-5.27 -139.146,30.395 -181.074,107.721l0,-71.012c-2.035,0.159 -4.112,0.228 -6.246,0.228c-2.131,0 -4.213,-0.069 -6.206,-0.228Z" style="fill:none;stroke:#0a7647;stroke-width:2.2px;"/></g><g><path d="M633.859,338.413l-34.465,0l0,22.193l38.492,0l0,17.378l-59.733,0l0,-93.591l57.78,0l0,17.355l-36.539,0l0,19.445l34.465,0l0,17.22Z" style="fill:#03974c;fill-rule:nonzero;"/><path d="M652.317,284.393l21.24,0l0,75.804l37.21,0l0,17.787l-58.45,0l0,-93.591Z" style="fill:#03974c;fill-rule:nonzero;"/><path d="M772.312,362.969c2.066,0.295 4.576,0.295 8.194,0.295c9.575,0 18.037,-3.749 18.037,-13.471c0,-9.427 -8.462,-13.198 -19.013,-13.198l-7.218,0l0,26.374Zm0,-41.526l6.944,0c11.103,0 17.072,-4.566 17.072,-11.495c0,-7.087 -5.417,-10.835 -14.987,-10.835c-4.583,0 -7.224,0.272 -9.029,0.546l0,21.784Zm-20.985,-35.824c5.56,-1.113 16.81,-1.931 27.373,-1.931c12.898,0 20.82,1.25 27.618,5.27c6.525,3.454 11.267,9.86 11.267,18.333c0,8.36 -4.874,16.128 -15.424,19.991l0,0.294c10.682,2.931 18.605,10.973 18.605,23.058c0,8.473 -3.897,15.106 -9.706,19.854c-6.809,5.429 -18.207,8.473 -36.812,8.473c-10.415,0 -18.19,-0.682 -22.921,-1.408l0,-91.934Z" style="fill:#03974c;fill-rule:nonzero;"/><path d="M880.208,338.139l-5.855,-19.876c-1.646,-5.566 -3.322,-12.471 -4.708,-18.06l-0.278,0c-1.386,5.589 -2.771,12.653 -4.294,18.06l-5.571,19.876l20.706,0Zm-23.772,15.811l-6.65,24.034l-21.944,0l28.594,-93.591l27.782,0l29.037,93.591l-22.779,0l-7.218,-24.034l-26.822,0Z" style="fill:#03974c;fill-rule:nonzero;"/><path d="M947.001,362.015c1.811,0.408 4.714,0.408 7.354,0.408c19.172,0.137 31.661,-10.426 31.661,-32.779c0.119,-19.422 -11.25,-29.713 -29.429,-29.713c-4.742,0 -7.775,0.431 -9.586,0.841l0,61.243Zm-21.241,-76.396c7.776,-1.226 17.901,-1.931 28.595,-1.931c17.769,0 29.299,3.18 38.316,9.996c9.73,7.224 15.846,18.764 15.846,35.279c0,17.899 -6.526,30.28 -15.567,37.89c-9.865,8.201 -24.851,12.108 -43.178,12.108c-10.972,0 -18.758,-0.682 -24.012,-1.408l0,-91.934Z" style="fill:#03974c;fill-rule:nonzero;"/><path d="M1043.38,325.895l8.342,0c10.536,0 16.794,-5.247 16.794,-13.447c0,-8.61 -5.85,-12.949 -15.55,-13.063c-5.14,0 -8.07,0.41 -9.586,0.705l0,25.805Zm-20.967,-40.276c6.798,-1.113 16.94,-1.931 28.185,-1.931c13.88,0 23.608,2.067 30.264,7.36c5.571,4.431 8.639,10.973 8.639,19.582c0,11.926 -8.497,20.127 -16.533,23.057l0,0.409c6.52,2.658 10.109,8.883 12.488,17.492c2.92,10.563 5.822,22.761 7.633,26.396l-21.655,0c-1.534,-2.772 -3.747,-10.268 -6.536,-21.808c-2.493,-11.676 -6.537,-14.856 -15.13,-14.992l-6.388,0l0,36.8l-20.967,0l0,-92.365Z" style="fill:#03974c;fill-rule:nonzero;"/></g><g><path d="M617.152,113.816l0,64.355c0.074,1.294 0.114,2.544 0.114,3.747c0,25.035 -12.705,37.574 -38.078,37.574l-3.067,0l0,-19.604c12.431,-0.069 18.604,-7.383 18.53,-22.012l0,-64.06l22.501,0Z" style="fill:#009542;fill-rule:nonzero;"/><path d="M663.476,113.633c1.59,-0.067 3.164,-0.113 4.754,-0.113c1.431,-0.045 2.862,-0.09 4.276,-0.09c11.308,0 21.768,2.271 31.445,6.814c10.78,5.134 18.532,12.813 23.268,23.057c4.742,10.246 6.814,19.991 6.219,29.213l18.411,0l0,18.241l-105.313,0l0,-18.241l62.726,0l0,-3.861c-0.904,-24.011 -16.169,-35.415 -45.786,-34.279l0,-20.741Z" style="fill:#009542;fill-rule:nonzero;"/><rect x="736.805" y="172.514" width="46.694" height="18.241" style="fill:#009542;fill-rule:nonzero;"/><path d="M792.648,200.842l23.75,0l0,20.194l-23.75,0l0,-20.194Zm0,-86.935l23.063,0l0,58.607l23.505,0l0,18.241l-71.187,0l0,-18.241l24.619,0l0,-58.607Z" style="fill:#009542;fill-rule:nonzero;"/><path d="M842.721,75.493l23.374,0l0,115.262l-42.94,0l0,-18.241l19.566,0l0,-97.021Z" style="fill:#009542;fill-rule:nonzero;"/><rect x="893.787" y="75.493" width="23.051" height="115.262" style="fill:#009542;fill-rule:nonzero;"/></g></g><defs><radialGradient id="_Radial1" cx="0" cy="0" r="1" gradientUnits="userSpaceOnUse" gradientTransform="matrix(119.843,0,0,130.415,260.873,296.024)"><stop offset="0" style="stop-color:#fff;stop-opacity:1"/><stop offset="1" style="stop-color:#f58345;stop-opacity:1"/></radialGradient><radialGradient id="_Radial2" cx="0" cy="0" r="1" gradientUnits="userSpaceOnUse" gradientTransform="matrix(138.104,0,0,150.287,260.871,318.769)"><stop offset="0" style="stop-color:#b4d670;stop-opacity:1"/><stop offset="1" style="stop-color:#00934d;stop-opacity:1"/></radialGradient></defs></svg>