<svg xmlns="http://www.w3.org/2000/svg" xmlns:xlink="http://www.w3.org/1999/xlink" xmlns:serif="http://www.serif.com/" width="100%" height="100%" viewBox="0 0 45 45" xml:space="preserve" style="fill-rule:evenodd;clip-rule:evenodd;stroke-linejoin:round;stroke-miterlimit:1.41421;">
    <g id="Plan-de-travail1" serif:id="Plan de travail1" transform="matrix(0.959136,0,0,0.959136,-14.8394,-14.0339)">
        <rect x="15.472" y="14.632" width="46.917" height="46.917" style="fill:none;"></rect>
        <g id="XMLID_815_" transform="matrix(1.0426,0,0,1.0426,-11.1324,10.2453)">
            <path id="XMLID_835_" d="M48.04,16.28C41.69,16.28 36.53,21.44 36.53,27.79C36.53,34.14 41.69,39.3 48.04,39.3C54.39,39.3 59.55,34.14 59.55,27.79C59.55,21.44 54.39,16.28 48.04,16.28ZM48.04,37.78C42.53,37.78 38.05,33.3 38.05,27.79C38.05,22.28 42.53,17.8 48.04,17.8C53.55,17.8 58.03,22.28 58.03,27.79C58.03,33.3 53.55,37.78 48.04,37.78Z" style="fill:url(#_Linear1);fill-rule:nonzero;"></path>
            <path id="XMLID_832_" d="M54.85,24.08C54.65,23.71 54.19,23.58 53.82,23.78C53.81,23.79 53.8,23.79 53.78,23.8C53.44,24.01 53.32,24.45 53.51,24.81C54.01,25.72 54.27,26.75 54.27,27.8C54.27,31.24 51.47,34.04 48.03,34.04C44.59,34.04 41.79,31.24 41.79,27.8C41.79,24.36 44.59,21.56 48.03,21.56C48.36,21.56 48.69,21.59 49.01,21.64C49.41,21.7 49.79,21.44 49.87,21.05C49.87,21.04 49.88,21.02 49.88,21.01C49.95,20.6 49.66,20.21 49.25,20.14C48.85,20.08 48.44,20.04 48.03,20.04C43.75,20.04 40.27,23.52 40.27,27.8C40.27,32.08 43.75,35.56 48.03,35.56C52.31,35.56 55.79,32.08 55.79,27.8C55.8,26.49 55.47,25.21 54.85,24.08Z" style="fill:url(#_Linear2);fill-rule:nonzero;"></path>
            <path id="XMLID_829_" d="M52.89,21.44C52.86,21.41 52.82,21.37 52.77,21.35C52.73,21.32 52.68,21.3 52.64,21.28C52.59,21.26 52.55,21.25 52.5,21.24C52.4,21.22 52.3,21.22 52.2,21.24C52.15,21.25 52.1,21.26 52.06,21.28C52.01,21.3 51.97,21.32 51.93,21.35C51.89,21.38 51.85,21.41 51.81,21.44C51.78,21.47 51.74,21.51 51.72,21.56C51.69,21.6 51.67,21.65 51.65,21.69C51.64,21.72 51.63,21.75 51.62,21.78C51.62,21.8 51.61,21.82 51.61,21.83C51.6,21.88 51.6,21.93 51.6,21.98C51.6,22.03 51.6,22.08 51.61,22.13C51.62,22.18 51.63,22.23 51.65,22.27C51.67,22.32 51.69,22.36 51.72,22.4C51.75,22.44 51.78,22.48 51.81,22.52C51.85,22.55 51.88,22.59 51.93,22.61C51.97,22.64 52.02,22.66 52.06,22.68C52.11,22.7 52.15,22.71 52.2,22.72C52.25,22.73 52.3,22.73 52.35,22.73C52.4,22.73 52.45,22.73 52.5,22.72C52.55,22.71 52.6,22.7 52.64,22.68C52.68,22.66 52.72,22.64 52.75,22.62C52.76,22.62 52.76,22.61 52.77,22.61C52.81,22.58 52.85,22.55 52.89,22.52C52.92,22.49 52.96,22.45 52.98,22.4C53.01,22.36 53.03,22.31 53.05,22.27C53.07,22.22 53.08,22.18 53.09,22.13C53.1,22.08 53.11,22.03 53.11,21.98C53.11,21.78 53.03,21.58 52.89,21.44Z" style="fill:url(#_Linear3);fill-rule:nonzero;"></path>
            <path id="XMLID_823_" d="M67.44,38.67L64.98,18.6C64.81,17.2 64.37,15.87 63.68,14.65C63.25,13.9 62.74,13.2 62.14,12.57L62.07,12.5C61.56,11.97 60.81,11.82 60.14,12.14C59.47,12.45 59.1,13.13 59.19,13.86L62.31,39.3C62.32,39.38 62.33,39.46 62.35,39.54C62.61,40.72 63.67,41.57 64.87,41.57C64.97,41.57 65.08,41.56 65.19,41.55C66.03,41.45 66.73,40.95 67.12,40.27C67.16,40.2 67.2,40.12 67.23,40.05C67.26,39.98 67.29,39.9 67.32,39.82C67.45,39.46 67.49,39.07 67.44,38.67ZM60.7,13.68C60.7,13.65 60.69,13.57 60.79,13.52C60.82,13.51 60.84,13.5 60.86,13.5C60.92,13.5 60.95,13.54 60.97,13.55L61.04,13.62C61.55,14.16 61.99,14.76 62.36,15.4C62.95,16.45 63.33,17.59 63.48,18.79L64.79,29.48L62.68,29.74L60.7,13.68ZM65.87,39.37C65.73,39.72 65.41,39.99 65.01,40.04C64.43,40.11 63.9,39.7 63.83,39.11L62.86,31.25L64.97,30.99L65.94,38.85C65.96,39.04 65.93,39.21 65.87,39.37Z" style="fill:url(#_Linear4);fill-rule:nonzero;"></path>
            <path id="XMLID_818_" d="M37.94,12.71C37.52,12.66 37.14,12.96 37.09,13.37L36.4,19C36.29,19.88 35.58,20.54 34.71,20.59L34.21,20.53L35.12,13.13C35.17,12.71 34.88,12.33 34.46,12.28C34.04,12.23 33.66,12.53 33.61,12.94L32.7,20.34L32.2,20.28C31.36,20.02 30.83,19.2 30.94,18.33L31.63,12.7C31.68,12.28 31.39,11.9 30.97,11.85C30.55,11.8 30.17,12.1 30.12,12.51L29.43,18.14C29.26,19.55 29.98,20.87 31.19,21.5L28.6,38.13L28.6,38.14C28.5,38.85 28.68,39.56 29.11,40.13C29.54,40.7 30.18,41.06 30.89,41.15L30.9,41.15C31.01,41.16 31.12,41.17 31.23,41.17C31.83,41.17 32.41,40.97 32.88,40.58C33.44,40.13 33.79,39.48 33.85,38.76L35.38,22.01C36.71,21.69 37.73,20.58 37.9,19.17L38.59,13.54C38.65,13.14 38.35,12.76 37.94,12.71ZM32.35,38.63C32.32,38.94 32.17,39.21 31.94,39.4C31.7,39.59 31.4,39.68 31.1,39.64L31.09,39.64C30.79,39.6 30.52,39.45 30.33,39.2C30.15,38.96 30.07,38.66 30.11,38.36L32.67,21.87L33.87,22.01L32.35,38.63Z" style="fill:url(#_Linear5);fill-rule:nonzero;"></path>
        </g>
    </g>
    <defs>
        <linearGradient id="_Linear1" x1="0" y1="0" x2="1" y2="0" gradientUnits="userSpaceOnUse" gradientTransform="matrix(23.0233,0,0,23.0233,36.5263,27.7903)"><stop offset="0" style="stop-color:rgb(241,90,36);stop-opacity:1"></stop><stop offset="1" style="stop-color:rgb(247,147,30);stop-opacity:1"></stop></linearGradient>
        <linearGradient id="_Linear2" x1="0" y1="0" x2="1" y2="0" gradientUnits="userSpaceOnUse" gradientTransform="matrix(15.5184,0,0,15.5184,40.2787,27.7903)"><stop offset="0" style="stop-color:rgb(241,90,36);stop-opacity:1"></stop><stop offset="1" style="stop-color:rgb(247,147,30);stop-opacity:1"></stop></linearGradient>
        <linearGradient id="_Linear3" x1="0" y1="0" x2="1" y2="0" gradientUnits="userSpaceOnUse" gradientTransform="matrix(1.5192,0,0,1.5192,51.5949,21.9795)"><stop offset="0" style="stop-color:rgb(241,90,36);stop-opacity:1"></stop><stop offset="1" style="stop-color:rgb(247,147,30);stop-opacity:1"></stop></linearGradient>
        <linearGradient id="_Linear4" x1="0" y1="0" x2="1" y2="0" gradientUnits="userSpaceOnUse" gradientTransform="matrix(8.2813,0,0,8.2813,59.1815,26.7726)"><stop offset="0" style="stop-color:rgb(241,90,36);stop-opacity:1"></stop><stop offset="1" style="stop-color:rgb(247,147,30);stop-opacity:1"></stop></linearGradient>
        <linearGradient id="_Linear5" x1="0" y1="0" x2="1" y2="0" gradientUnits="userSpaceOnUse" gradientTransform="matrix(10.036,0,0,10.036,28.5675,26.5083)"><stop offset="0" style="stop-color:rgb(241,90,36);stop-opacity:1"></stop><stop offset="1" style="stop-color:rgb(247,147,30);stop-opacity:1"></stop></linearGradient>
    </defs>
</svg>