<svg xmlns="http://www.w3.org/2000/svg" xmlns:xlink="http://www.w3.org/1999/xlink" xmlns:serif="http://www.serif.com/" width="100%" height="100%" viewBox="0 0 45 45" xml:space="preserve" style="fill-rule:evenodd;clip-rule:evenodd;stroke-linejoin:round;stroke-miterlimit:1.41421;">
    <g id="Plan-de-travail1" serif:id="Plan de travail1" transform="matrix(0.959136,0,0,0.959136,-14.8394,-14.0339)">
        <rect x="15.472" y="14.632" width="46.917" height="46.917" style="fill:none;"></rect>
    </g>
    <g id="XMLID_772_" transform="matrix(1,0,0,1,-26.45,-32.205)">
        <path id="XMLID_812_" d="M37.15,62.32C35.92,62.32 34.91,63.32 34.91,64.56C34.91,65.79 35.91,66.8 37.15,66.8C38.38,66.8 39.39,65.8 39.39,64.56C39.39,63.32 38.39,62.32 37.15,62.32ZM37.15,65.17C36.81,65.17 36.54,64.9 36.54,64.56C36.54,64.22 36.81,63.95 37.15,63.95C37.49,63.95 37.76,64.22 37.76,64.56C37.76,64.9 37.49,65.17 37.15,65.17Z" style="fill:url(#_Linear1);fill-rule:nonzero;"></path>
        <path id="XMLID_809_" d="M60.3,62.32C59.07,62.32 58.06,63.32 58.06,64.56C58.06,65.79 59.06,66.8 60.3,66.8C61.53,66.8 62.54,65.8 62.54,64.56C62.54,63.32 61.54,62.32 60.3,62.32ZM60.3,65.17C59.96,65.17 59.69,64.9 59.69,64.56C59.69,64.22 59.96,63.95 60.3,63.95C60.64,63.95 60.91,64.22 60.91,64.56C60.91,64.9 60.64,65.17 60.3,65.17Z" style="fill:url(#_Linear2);fill-rule:nonzero;"></path>
        <path id="XMLID_780_" d="M69.98,60.63L69.98,52.99L69.98,44.67C69.98,42.08 67.87,39.97 65.28,39.97L34.78,39.97C30.75,39.97 27.48,43.25 27.48,47.27L27.48,60.63C26.85,61.1 26.45,61.85 26.45,62.69L26.45,62.79C26.45,64.21 27.61,65.37 29.03,65.37L32.34,65.37C32.73,67.68 34.74,69.44 37.16,69.44C39.58,69.44 41.59,67.68 41.98,65.37L55.5,65.37C55.89,67.68 57.9,69.44 60.32,69.44C62.74,69.44 64.75,67.68 65.14,65.37L68.45,65.37C69.87,65.37 71.03,64.21 71.03,62.79L71.03,62.69C71.01,61.85 70.6,61.1 69.98,60.63ZM68.35,52.18L66.12,52.18C66.01,52.18 65.91,52.09 65.91,51.97L65.91,45.69C65.91,45.58 66,45.48 66.12,45.48L68.35,45.48L68.35,52.18ZM28.07,62.79L28.07,62.69C28.07,62.17 28.5,61.74 29.02,61.74L33.16,61.74C32.75,62.33 32.46,63.01 32.33,63.74L29.02,63.74C28.5,63.74 28.07,63.32 28.07,62.79ZM37.15,67.81C35.35,67.81 33.89,66.35 33.89,64.55C33.89,62.75 35.35,61.29 37.15,61.29C38.95,61.29 40.41,62.75 40.41,64.55C40.41,66.35 38.95,67.81 37.15,67.81ZM55.49,63.74L41.97,63.74C41.58,61.43 39.57,59.67 37.15,59.67C36.43,59.67 35.74,59.83 35.12,60.11L29.1,60.11L29.1,47.27C29.1,44.14 31.64,41.6 34.77,41.6L65.27,41.6C66.68,41.6 67.87,42.56 68.23,43.86L66.11,43.86C65.1,43.86 64.27,44.68 64.27,45.7L64.27,51.98C64.27,52.99 65.09,53.82 66.11,53.82L68.34,53.82L68.34,60.13L62.32,60.13C61.7,59.85 61.02,59.69 60.29,59.69C57.89,59.67 55.88,61.44 55.49,63.74ZM60.3,67.81C58.5,67.81 57.04,66.35 57.04,64.55C57.04,62.75 58.5,61.29 60.3,61.29C62.1,61.29 63.56,62.75 63.56,64.55C63.56,66.35 62.1,67.81 60.3,67.81ZM69.38,62.79C69.38,63.31 68.95,63.74 68.43,63.74L65.12,63.74C65,63 64.71,62.32 64.29,61.74L68.43,61.74C68.95,61.74 69.38,62.17 69.38,62.69L69.38,62.79Z" style="fill:url(#_Linear3);fill-rule:nonzero;"></path>
        <path id="XMLID_774_" d="M61.88,51.97L61.88,45.69C61.88,44.68 61.06,43.85 60.04,43.85L34.97,43.85C32.8,43.85 31.04,45.61 31.04,47.78L31.04,51.97C31.04,52.98 31.86,53.81 32.88,53.81L60.04,53.81C61.05,53.8 61.88,52.98 61.88,51.97ZM47.27,45.48L53.67,45.48L53.67,52.17L47.27,52.17L47.27,45.48ZM45.65,52.18L39.25,52.18L39.25,45.49L45.65,45.49L45.65,52.18ZM32.67,51.97L32.67,47.78C32.67,46.51 33.7,45.48 34.97,45.48L37.62,45.48L37.62,52.17L32.88,52.17C32.76,52.18 32.67,52.08 32.67,51.97ZM60.25,51.97C60.25,52.08 60.16,52.18 60.04,52.18L55.3,52.18L55.3,45.49L60.04,45.49C60.15,45.49 60.25,45.58 60.25,45.7L60.25,51.97Z" style="fill:url(#_Linear4);fill-rule:nonzero;"></path>
        <path id="XMLID_773_" d="M66.56,58.85C67.01,58.85 67.37,58.49 67.37,58.04L67.37,57.32C67.37,56.87 67.01,56.51 66.56,56.51C66.11,56.51 65.75,56.87 65.75,57.32L65.75,58.04C65.75,58.48 66.11,58.85 66.56,58.85Z" style="fill:url(#_Linear5);fill-rule:nonzero;"></path>
    </g>
    <defs>
        <linearGradient id="_Linear1" x1="0" y1="0" x2="1" y2="0" gradientUnits="userSpaceOnUse" gradientTransform="matrix(4.4767,0,0,4.4767,34.9154,64.5574)"><stop offset="0" style="stop-color:rgb(241,90,36);stop-opacity:1"></stop><stop offset="1" style="stop-color:rgb(247,147,30);stop-opacity:1"></stop></linearGradient>
        <linearGradient id="_Linear2" x1="0" y1="0" x2="1" y2="0" gradientUnits="userSpaceOnUse" gradientTransform="matrix(4.4766,0,0,4.4766,58.0642,64.5574)"><stop offset="0" style="stop-color:rgb(241,90,36);stop-opacity:1"></stop><stop offset="1" style="stop-color:rgb(247,147,30);stop-opacity:1"></stop></linearGradient>
        <linearGradient id="_Linear3" x1="0" y1="0" x2="1" y2="0" gradientUnits="userSpaceOnUse" gradientTransform="matrix(44.5667,0,0,44.5667,26.4448,54.7059)"><stop offset="0" style="stop-color:rgb(241,90,36);stop-opacity:1"></stop><stop offset="1" style="stop-color:rgb(247,147,30);stop-opacity:1"></stop></linearGradient>
        <linearGradient id="_Linear4" x1="0" y1="0" x2="1" y2="0" gradientUnits="userSpaceOnUse" gradientTransform="matrix(30.8334,0,0,30.8334,31.0433,48.8296)"><stop offset="0" style="stop-color:rgb(241,90,36);stop-opacity:1"></stop><stop offset="1" style="stop-color:rgb(247,147,30);stop-opacity:1"></stop></linearGradient>
        <linearGradient id="_Linear5" x1="0" y1="0" x2="1" y2="0" gradientUnits="userSpaceOnUse" gradientTransform="matrix(1.6284,0,0,1.6284,65.748,57.6718)"><stop offset="0" style="stop-color:rgb(241,90,36);stop-opacity:1"></stop><stop offset="1" style="stop-color:rgb(247,147,30);stop-opacity:1"></stop></linearGradient>
    </defs>
</svg>