<svg xmlns="http://www.w3.org/2000/svg" xmlns:xlink="http://www.w3.org/1999/xlink" id="Calque_1" x="0px" y="0px" viewBox="0 0 40 40" style="enable-background:new 0 0 40 40;" xml:space="preserve">
<style type="text/css">
	.st0{fill:url(#SVGID_1_);}
	.st1{fill:url(#SVGID_2_);}
	.st2{fill:url(#SVGID_3_);}
	.st3{fill:url(#SVGID_4_);}
	.st4{fill:url(#SVGID_5_);}
	.st5{clip-path:url(#SVGID_7_);fill:url(#SVGID_8_);}
	.st6{fill:url(#SVGID_9_);}
	.st7{fill:url(#SVGID_10_);}
	.st8{fill:url(#SVGID_11_);}
	.st9{fill:url(#SVGID_12_);}
	.st10{fill:#010101;}
	.st11{fill:url(#SVGID_13_);}
	.st12{fill:url(#SVGID_14_);}
</style>
<g>
	<g>
		<defs>
			<rect id="SVGID_6_" x="5.23" y="5.19" width="29.55" height="29.62"></rect>
		</defs>
		<clipPath id="SVGID_1_">
			<use xlink:href="#SVGID_6_" style="overflow:visible;"></use>
		</clipPath>
		<linearGradient id="SVGID_2_" gradientUnits="userSpaceOnUse" x1="5.2259" y1="20.7589" x2="33.3106" y2="20.7589">
			<stop offset="0" style="stop-color:#F15B27"></stop>
			<stop offset="1" style="stop-color:#F79421"></stop>
		</linearGradient>
		<path style="clip-path:url(#SVGID_1_);fill:url(#SVGID_2_);" d="M32.56,27.11l-3.65-3.78c0,0-0.01-0.01-0.01-0.01    c-1.01-1.01-2.66-1.01-3.67,0l-1.67,1.67c-0.77,0.77-2.01,0.77-2.78,0l0,0l-5.8-5.66c-0.77-0.77-0.77-2.01,0-2.78l1.67-1.67    c1.01-1.01,1.01-2.66,0-3.67l-3.67-3.67c-1.01-1.01-2.66-1.01-3.67,0c0,0-1.22,1.22-1.22,1.22c0,0-0.11,0.11-0.11,0.11    c-3.66,3.66-3.66,9.57,0,13.23L18,32c3.65,3.65,9.56,3.66,13.22,0.01c0.02-0.02,1.32-1.21,1.34-1.23    C33.56,29.77,33.56,28.12,32.56,27.11L32.56,27.11z M10.53,8.76c0.34-0.34,0.89-0.34,1.22,0l3.67,3.67c0.34,0.34,0.34,0.89,0,1.22    l-0.61,0.61L9.91,9.37L10.53,8.76z M19.22,30.77L9.19,20.88c-2.83-2.83-2.96-7.28-0.48-10.26l4.88,4.88    c-1.28,1.45-1.22,3.67,0.16,5.05l5.8,5.66c1.39,1.39,3.6,1.44,5.05,0.16l4.88,4.88C26.47,33.75,22.04,33.6,19.22,30.77    L19.22,30.77z M31.34,29.54l-0.58,0.54l-4.92-4.92l0.61-0.61c0.34-0.34,0.88-0.34,1.22,0c0.01,0.01,3.66,3.78,3.66,3.79    C31.66,28.66,31.67,29.2,31.34,29.54L31.34,29.54z M31.34,29.54"></path>
	</g>
	<linearGradient id="SVGID_3_" gradientUnits="userSpaceOnUse" x1="19.1824" y1="12.9998" x2="34.7512" y2="12.9998">
		<stop offset="0" style="stop-color:#F15B27"></stop>
		<stop offset="1" style="stop-color:#F79421"></stop>
	</linearGradient>
	<path class="st2" d="M20.05,5.22c-0.48,0-0.86,0.39-0.86,0.86c0,0.48,0.39,0.86,0.86,0.86c7.15,0,12.97,5.82,12.97,12.97   c0,0.48,0.39,0.86,0.86,0.86s0.86-0.39,0.86-0.86C34.75,11.79,28.17,5.22,20.05,5.22L20.05,5.22z M20.05,5.22"></path>
	<linearGradient id="SVGID_4_" gradientUnits="userSpaceOnUse" x1="19.1824" y1="14.7296" x2="31.2914" y2="14.7296">
		<stop offset="0" style="stop-color:#F15B27"></stop>
		<stop offset="1" style="stop-color:#F79421"></stop>
	</linearGradient>
	<path class="st3" d="M20.05,8.68c-0.48,0-0.86,0.39-0.86,0.86c0,0.48,0.39,0.86,0.86,0.86c5.25,0,9.51,4.27,9.51,9.51   c0,0.48,0.39,0.86,0.86,0.86c0.48,0,0.86-0.39,0.86-0.86C31.29,13.72,26.25,8.68,20.05,8.68L20.05,8.68z M20.05,8.68"></path>
	<linearGradient id="SVGID_5_" gradientUnits="userSpaceOnUse" x1="19.1824" y1="16.4595" x2="27.8317" y2="16.4595">
		<stop offset="0" style="stop-color:#F15B27"></stop>
		<stop offset="1" style="stop-color:#F79421"></stop>
	</linearGradient>
	<path class="st4" d="M20.05,12.13c-0.48,0-0.86,0.39-0.86,0.86c0,0.48,0.39,0.86,0.86,0.86c3.34,0,6.05,2.72,6.05,6.05   c0,0.48,0.39,0.86,0.86,0.86c0.48,0,0.86-0.39,0.86-0.86C27.83,15.63,24.34,12.13,20.05,12.13L20.05,12.13z M20.05,12.13"></path>
	<linearGradient id="SVGID_7_" gradientUnits="userSpaceOnUse" x1="19.1824" y1="18.1893" x2="24.3721" y2="18.1893">
		<stop offset="0" style="stop-color:#F15B27"></stop>
		<stop offset="1" style="stop-color:#F79421"></stop>
	</linearGradient>
	<path style="fill:url(#SVGID_7_);" d="M20.05,15.59c-0.48,0-0.86,0.39-0.86,0.86c0,0.48,0.39,0.86,0.86,0.86   c1.43,0,2.59,1.16,2.59,2.59c0,0.48,0.39,0.86,0.86,0.86s0.86-0.39,0.86-0.86C24.37,17.53,22.43,15.59,20.05,15.59L20.05,15.59z    M20.05,15.59"></path>
</g>
</svg>